<?xml version="1.0" standalone="no"?>
<!DOCTYPE svg PUBLIC "-//W3C//DTD SVG 20010904//EN"
 "http://www.w3.org/TR/2001/REC-SVG-20010904/DTD/svg10.dtd">
<svg version="1.0" xmlns="http://www.w3.org/2000/svg"
 width="119.000000pt" height="130.000000pt" viewBox="0 0 119.000000 130.000000"
 preserveAspectRatio="xMidYMid meet">
<metadata>
Created by potrace 1.10, written by Peter Selinger 2001-2011
</metadata>
<g transform="translate(0.000000,130.000000) scale(0.100000,-0.100000)"
fill="#000000" stroke="none">
<path d="M11 1284 c-12 -14 -12 -17 0 -25 12 -8 12 -11 -1 -19 -8 -5 -11 -10
-7 -10 5 0 19 8 32 18 19 15 21 21 10 35 -15 20 -16 20 -34 1z"/>
<path d="M175 1291 c-49 -12 -82 -39 -99 -82 -14 -34 -16 -108 -16 -561 0
-499 1 -523 20 -562 21 -45 48 -65 97 -77 42 -9 42 3 1 32 -46 31 -68 60 -67
89 0 24 0 23 13 -6 29 -65 22 -64 433 -64 l373 0 32 29 c31 28 33 34 39 118
l6 88 1 -82 c2 -100 -6 -125 -57 -160 -22 -16 -42 -33 -45 -39 -7 -18 72 1 95
22 40 36 47 65 51 220 l4 152 -48 -42 -48 -41 0 -97 c0 -74 -4 -100 -16 -112
-13 -14 -63 -16 -388 -16 -276 0 -375 3 -384 12 -17 17 -17 1059 0 1076 9 9
108 12 384 12 325 0 375 -2 388 -16 12 -12 16 -38 16 -112 l0 -97 48 -41 48
-42 -4 152 c-4 155 -11 184 -51 220 -21 19 -101 39 -101 25 0 -4 21 -22 46
-39 56 -39 64 -61 62 -158 l-1 -77 -6 82 c-5 73 -9 85 -35 112 l-30 31 -376 0
c-415 0 -407 1 -436 -64 -13 -31 -13 -31 -14 -5 0 26 5 33 80 98 36 32 35 34
-15 22z"/>
<path d="M1062 1280 c7 -11 16 -20 20 -20 3 0 5 -15 4 -34 -3 -27 0 -33 12
-28 12 4 14 1 8 -13 -4 -11 0 -25 10 -36 16 -18 16 -20 -1 -39 -17 -18 -17
-20 -2 -14 10 3 17 1 17 -5 0 -6 -4 -11 -9 -11 -5 0 -11 -7 -14 -14 -4 -10 -1
-13 9 -9 7 3 14 0 14 -6 0 -6 -5 -11 -11 -11 -8 0 -7 -6 2 -17 11 -13 11 -17
1 -21 -10 -3 -10 -7 0 -20 11 -12 11 -16 0 -20 -10 -3 -10 -7 0 -20 11 -12 11
-16 0 -20 -10 -3 -7 -11 9 -28 12 -13 19 -27 14 -31 -4 -5 -10 -2 -12 5 -3 6
-10 12 -16 12 -6 0 0 -11 13 -25 13 -14 20 -28 15 -32 -4 -5 -10 -2 -12 5 -3
6 -10 12 -16 12 -6 0 0 -11 13 -25 13 -14 28 -25 34 -24 6 0 5 3 -1 6 -23 9
-14 25 10 17 22 -6 22 -6 -2 15 -26 22 -22 43 4 21 24 -20 18 0 -7 21 -24 21
-17 39 7 19 9 -7 15 -8 15 -2 0 6 -6 13 -12 15 -10 4 -9 8 2 16 8 5 11 13 7
18 -5 4 -12 1 -17 -7 -5 -8 -13 -11 -17 -6 -4 4 3 16 16 27 13 11 21 23 17 26
-4 4 -11 1 -16 -7 -5 -8 -13 -11 -17 -6 -4 4 3 17 16 28 21 16 22 21 10 29
-12 8 -12 10 1 19 13 9 13 11 0 20 -13 9 -13 11 0 20 13 9 13 11 0 20 -13 9
-13 11 0 20 13 9 13 11 0 20 -13 9 -13 11 0 20 13 9 13 11 0 20 -13 9 -13 11
0 20 13 9 13 11 0 20 -13 9 -13 11 0 20 13 9 13 11 0 20 -13 9 -13 11 0 19 8
6 11 13 7 18 -5 4 -12 1 -18 -7 -8 -13 -10 -13 -19 0 -9 13 -11 13 -20 0 -9
-13 -11 -13 -20 0 -9 13 -11 13 -21 0 -8 -11 -12 -12 -16 -2 -2 6 -9 12 -14
12 -5 0 -4 -9 3 -20z m51 -12 c4 -10 8 -10 15 1 9 12 13 12 28 -3 14 -15 15
-19 3 -27 -12 -8 -12 -10 1 -19 13 -9 13 -11 0 -20 -13 -9 -13 -11 0 -20 13
-9 13 -11 0 -20 -13 -9 -13 -11 0 -20 13 -9 13 -11 0 -20 -13 -9 -13 -11 0
-20 13 -9 13 -11 0 -20 -13 -9 -13 -11 0 -20 13 -9 13 -11 0 -20 -13 -9 -13
-11 -1 -19 12 -8 12 -12 -3 -26 -9 -10 -20 -14 -24 -11 -3 4 0 11 8 17 13 8
13 10 0 19 -13 9 -13 11 0 20 13 9 13 11 0 20 -13 9 -13 11 0 20 13 9 13 11 0
20 -13 9 -13 11 0 19 12 8 10 13 -10 31 -20 17 -22 23 -10 30 12 7 10 13 -10
30 -21 18 -22 23 -10 31 11 8 12 12 3 16 -15 5 -17 23 -4 23 5 0 12 -6 14 -12z"/>
<path d="M1122 1244 c-11 -12 -10 -17 3 -30 9 -9 19 -13 23 -10 3 4 0 12 -8
17 -11 8 -12 12 -2 16 13 5 17 23 5 23 -5 -1 -14 -7 -21 -16z"/>
<path d="M231 1144 c-12 -14 -12 -17 0 -24 11 -7 9 -13 -9 -28 -24 -21 -31
-42 -7 -22 9 7 19 9 23 5 4 -4 1 -10 -6 -12 -10 -4 -10 -8 -1 -20 10 -12 10
-16 -2 -24 -12 -8 -12 -10 1 -18 12 -8 10 -13 -10 -32 -24 -21 -24 -21 -2 -15
12 4 22 4 22 0 0 -4 -10 -16 -22 -27 l-23 -19 23 6 c13 5 22 3 22 -3 0 -6 -5
-11 -12 -11 -6 0 -8 -3 -4 -7 7 -7 86 66 86 80 0 5 -14 -5 -30 -23 -17 -18
-34 -30 -37 -26 -4 3 10 23 30 44 20 21 37 42 37 46 0 4 -14 -6 -30 -24 -17
-18 -34 -30 -37 -26 -4 4 14 28 40 53 25 26 50 43 54 39 4 -5 2 -11 -4 -13 -7
-3 -13 -10 -13 -16 0 -6 11 0 25 13 14 13 25 28 25 34 0 6 -4 5 -9 -3 -8 -12
-12 -12 -24 -2 -12 9 -16 9 -20 -1 -2 -7 -8 -10 -12 -5 -5 4 4 20 18 35 15 16
27 32 27 37 0 4 -8 -2 -19 -13 -24 -28 -34 -28 -25 1 6 22 6 22 -15 -2 -12
-13 -24 -21 -28 -18 -3 4 1 15 10 25 10 10 17 22 17 27 0 4 -8 -2 -19 -13 -23
-27 -34 -28 -26 -2 8 24 5 25 -14 4z m69 -89 c0 -3 -12 -17 -26 -32 -32 -32
-45 -21 -14 12 22 23 40 32 40 20z"/>
<path d="M840 1032 c0 -10 78 -87 83 -81 2 2 -16 23 -40 47 -23 23 -43 39 -43
34z"/>
<path d="M840 992 c0 -10 98 -107 103 -101 2 2 -20 28 -50 57 -29 29 -53 49
-53 44z"/>
<path d="M722 968 c-7 -7 -12 -43 -12 -90 l0 -78 -159 0 c-132 0 -162 -3 -175
-16 -23 -23 -23 -245 0 -268 13 -13 43 -16 175 -16 l159 0 0 -80 c0 -69 3 -81
20 -90 17 -9 41 9 183 133 91 79 177 153 192 165 l28 22 -28 22 c-15 12 -101
86 -192 165 -90 79 -167 143 -171 143 -4 0 -13 -5 -20 -12z m193 -184 c80 -70
145 -130 145 -134 0 -10 -288 -260 -300 -260 -5 0 -10 23 -10 50 0 41 -5 56
-25 75 -23 24 -29 25 -168 25 -123 0 -146 2 -151 16 -3 9 -6 55 -6 104 0 71 3
89 16 94 9 3 78 6 154 6 138 0 139 0 159 26 15 19 21 41 21 75 0 27 5 49 10
49 6 0 76 -57 155 -126z"/>
<path d="M262 893 c-24 -25 -42 -46 -40 -49 2 -2 24 16 48 41 24 25 42 46 39
48 -2 2 -24 -16 -47 -40z"/>
<path d="M282 873 c-35 -36 -62 -66 -60 -68 2 -3 33 25 68 60 35 35 62 66 59
68 -2 2 -33 -25 -67 -60z"/>
<path d="M282 833 c-34 -34 -59 -63 -54 -63 10 0 127 118 121 123 -2 2 -32
-25 -67 -60z"/>
<path d="M1086 885 c-3 -8 -3 -22 0 -30 4 -9 1 -15 -7 -15 -7 0 -3 -10 11 -25
13 -14 28 -25 33 -25 6 0 0 9 -13 20 -18 16 -20 23 -11 34 9 11 9 15 -1 18
-10 4 -10 8 1 21 7 10 9 17 3 17 -5 0 -12 -7 -16 -15z"/>
<path d="M322 833 c-23 -23 -39 -43 -34 -43 10 0 87 78 81 83 -2 2 -23 -16
-47 -40z"/>
<path d="M1039 826 c37 -37 51 -58 45 -68 -6 -11 -5 -11 9 0 14 12 10 19 -38
68 -30 30 -58 54 -62 54 -4 0 17 -24 46 -54z"/>
</g>
</svg>
